%TF.GenerationSoftware,KiCad,Pcbnew,8.0.8+dfsg-1*%
%TF.CreationDate,2026-08-03T12:04:17-07:00*%
%TF.ProjectId,motor_control_board,6d6f746f-725f-4636-9f6e-74726f6c5f62,rev?*%
%TF.SameCoordinates,Original*%
%TF.FileFunction,Copper,L2,Bot*%
%TF.FilePolarity,Positive*%
%FSLAX46Y46*%
G04 Gerber Fmt 4.6, Leading zero omitted, Abs format (unit mm)*
G04 Created by KiCad (PCBNEW 8.0.8+dfsg-1) date 2026-08-03 12:04:17*
%MOMM*%
%LPD*%
G01*
G04 APERTURE LIST*
%TA.AperFunction,ComponentPad*%
%ADD10R,1.700000X1.700000*%
%TD*%
%TA.AperFunction,ComponentPad*%
%ADD11O,1.700000X1.700000*%
%TD*%
%TA.AperFunction,ComponentPad*%
%ADD12R,3.000000X3.000000*%
%TD*%
%TA.AperFunction,ComponentPad*%
%ADD13C,3.000000*%
%TD*%
%TA.AperFunction,ViaPad*%
%ADD14C,0.600000*%
%TD*%
%TA.AperFunction,Conductor*%
%ADD15C,0.600000*%
%TD*%
G04 APERTURE END LIST*
D10*
%TO.P,J6,1,Pin_1*%
%TO.N,/GPIO32*%
X150000000Y-130000000D03*
D11*
%TO.P,J6,2,Pin_2*%
%TO.N,/GPIO33*%
X152540000Y-130000000D03*
%TO.P,J6,3,Pin_3*%
%TO.N,+3V3*%
X150000000Y-132540000D03*
%TO.P,J6,4,Pin_4*%
X152540000Y-132540000D03*
%TO.P,J6,5,Pin_5*%
%TO.N,unconnected-(J6-Pin_5-Pad5)*%
X150000000Y-135080000D03*
%TO.P,J6,6,Pin_6*%
%TO.N,unconnected-(J6-Pin_6-Pad6)*%
X152540000Y-135080000D03*
%TO.P,J6,7,Pin_7*%
%TO.N,+3V3*%
X150000000Y-137620000D03*
%TO.P,J6,8,Pin_8*%
%TO.N,GND*%
X152540000Y-137620000D03*
%TD*%
D12*
%TO.P,J1,1,Pin_1*%
%TO.N,+5V*%
X144920000Y-107250000D03*
D13*
%TO.P,J1,2,Pin_2*%
%TO.N,GND*%
X150000000Y-107250000D03*
%TD*%
D10*
%TO.P,J7,1,Pin_1*%
%TO.N,/GPIO25*%
X150000000Y-160000000D03*
D11*
%TO.P,J7,2,Pin_2*%
%TO.N,/GPIO26*%
X152540000Y-160000000D03*
%TO.P,J7,3,Pin_3*%
%TO.N,+3V3*%
X150000000Y-162540000D03*
%TO.P,J7,4,Pin_4*%
X152540000Y-162540000D03*
%TO.P,J7,5,Pin_5*%
%TO.N,unconnected-(J7-Pin_5-Pad5)*%
X150000000Y-165080000D03*
%TO.P,J7,6,Pin_6*%
%TO.N,unconnected-(J7-Pin_6-Pad6)*%
X152540000Y-165080000D03*
%TO.P,J7,7,Pin_7*%
%TO.N,+3V3*%
X150000000Y-167620000D03*
%TO.P,J7,8,Pin_8*%
%TO.N,GND*%
X152540000Y-167620000D03*
%TD*%
D10*
%TO.P,J2,1,Pin_1*%
%TO.N,+3V3*%
X100000000Y-100000000D03*
D11*
%TO.P,J2,2,Pin_2*%
%TO.N,GND*%
X100000000Y-102540000D03*
%TO.P,J2,3,Pin_3*%
%TO.N,/GPIO15*%
X100000000Y-105080000D03*
%TO.P,J2,4,Pin_4*%
%TO.N,/GPIO2*%
X100000000Y-107620000D03*
%TO.P,J2,5,Pin_5*%
%TO.N,/GPIO04*%
X100000000Y-110160000D03*
%TO.P,J2,6,Pin_6*%
%TO.N,/GPIO16*%
X100000000Y-112700000D03*
%TO.P,J2,7,Pin_7*%
%TO.N,/GPIO17*%
X100000000Y-115240000D03*
%TO.P,J2,8,Pin_8*%
%TO.N,/GPIO5*%
X100000000Y-117780000D03*
%TO.P,J2,9,Pin_9*%
%TO.N,/GPIO18*%
X100000000Y-120320000D03*
%TO.P,J2,10,Pin_10*%
%TO.N,/GPIO19*%
X100000000Y-122860000D03*
%TO.P,J2,11,Pin_11*%
%TO.N,/GPIO21*%
X100000000Y-125400000D03*
%TO.P,J2,12,Pin_12*%
%TO.N,/RX0*%
X100000000Y-127940000D03*
%TO.P,J2,13,Pin_13*%
%TO.N,/TX0*%
X100000000Y-130480000D03*
%TO.P,J2,14,Pin_14*%
%TO.N,/GPIO22*%
X100000000Y-133020000D03*
%TO.P,J2,15,Pin_15*%
%TO.N,/GPIO23*%
X100000000Y-135560000D03*
%TD*%
D10*
%TO.P,J4,1,Pin_1*%
%TO.N,/GPIO16*%
X100000000Y-160000000D03*
D11*
%TO.P,J4,2,Pin_2*%
%TO.N,/GPIO17*%
X102540000Y-160000000D03*
%TO.P,J4,3,Pin_3*%
%TO.N,+3V3*%
X100000000Y-162540000D03*
%TO.P,J4,4,Pin_4*%
X102540000Y-162540000D03*
%TO.P,J4,5,Pin_5*%
%TO.N,unconnected-(J4-Pin_5-Pad5)*%
X100000000Y-165080000D03*
%TO.P,J4,6,Pin_6*%
%TO.N,unconnected-(J4-Pin_6-Pad6)*%
X102540000Y-165080000D03*
%TO.P,J4,7,Pin_7*%
%TO.N,+3V3*%
X100000000Y-167620000D03*
%TO.P,J4,8,Pin_8*%
%TO.N,GND*%
X102540000Y-167620000D03*
%TD*%
D10*
%TO.P,J3,1,Pin_1*%
%TO.N,+5V*%
X125400000Y-100000000D03*
D11*
%TO.P,J3,2,Pin_2*%
%TO.N,GND*%
X125400000Y-102540000D03*
%TO.P,J3,3,Pin_3*%
%TO.N,/GPIO13*%
X125400000Y-105080000D03*
%TO.P,J3,4,Pin_4*%
%TO.N,/GPIO12*%
X125400000Y-107620000D03*
%TO.P,J3,5,Pin_5*%
%TO.N,/GPIO14*%
X125400000Y-110160000D03*
%TO.P,J3,6,Pin_6*%
%TO.N,/GPIO27*%
X125400000Y-112700000D03*
%TO.P,J3,7,Pin_7*%
%TO.N,/GPIO26*%
X125400000Y-115240000D03*
%TO.P,J3,8,Pin_8*%
%TO.N,/GPIO25*%
X125400000Y-117780000D03*
%TO.P,J3,9,Pin_9*%
%TO.N,/GPIO33*%
X125400000Y-120320000D03*
%TO.P,J3,10,Pin_10*%
%TO.N,/GPIO32*%
X125400000Y-122860000D03*
%TO.P,J3,11,Pin_11*%
%TO.N,/GPIO35*%
X125400000Y-125400000D03*
%TO.P,J3,12,Pin_12*%
%TO.N,/GPIO34*%
X125400000Y-127940000D03*
%TO.P,J3,13,Pin_13*%
%TO.N,/VN*%
X125400000Y-130480000D03*
%TO.P,J3,14,Pin_14*%
%TO.N,/VP*%
X125400000Y-133020000D03*
%TO.P,J3,15,Pin_15*%
%TO.N,/EN*%
X125400000Y-135560000D03*
%TD*%
D10*
%TO.P,J5,1,Pin_1*%
%TO.N,/GPIO18*%
X125000000Y-160000000D03*
D11*
%TO.P,J5,2,Pin_2*%
%TO.N,/GPIO19*%
X127540000Y-160000000D03*
%TO.P,J5,3,Pin_3*%
%TO.N,+3V3*%
X125000000Y-162540000D03*
%TO.P,J5,4,Pin_4*%
X127540000Y-162540000D03*
%TO.P,J5,5,Pin_5*%
%TO.N,unconnected-(J5-Pin_5-Pad5)*%
X125000000Y-165080000D03*
%TO.P,J5,6,Pin_6*%
%TO.N,unconnected-(J5-Pin_6-Pad6)*%
X127540000Y-165080000D03*
%TO.P,J5,7,Pin_7*%
%TO.N,+3V3*%
X125000000Y-167620000D03*
%TO.P,J5,8,Pin_8*%
%TO.N,GND*%
X127540000Y-167620000D03*
%TD*%
D14*
%TO.N,GND*%
X146500000Y-156500000D03*
X146500000Y-165000000D03*
%TO.N,+3V3*%
X144500000Y-161250000D03*
X144500000Y-156500000D03*
%TD*%
D15*
%TO.N,GND*%
X146500000Y-156500000D02*
X146500000Y-165000000D01*
%TO.N,+3V3*%
X144500000Y-156500000D02*
X144500000Y-161250000D01*
%TD*%
M02*
