%TF.GenerationSoftware,KiCad,Pcbnew,8.0.8+dfsg-1*%
%TF.CreationDate,2026-08-03T12:04:17-07:00*%
%TF.ProjectId,motor_control_board,6d6f746f-725f-4636-9f6e-74726f6c5f62,rev?*%
%TF.SameCoordinates,Original*%
%TF.FileFunction,Soldermask,Top*%
%TF.FilePolarity,Negative*%
%FSLAX46Y46*%
G04 Gerber Fmt 4.6, Leading zero omitted, Abs format (unit mm)*
G04 Created by KiCad (PCBNEW 8.0.8+dfsg-1) date 2026-08-03 12:04:17*
%MOMM*%
%LPD*%
G01*
G04 APERTURE LIST*
%ADD10R,1.700000X1.700000*%
%ADD11O,1.700000X1.700000*%
%ADD12R,3.000000X3.000000*%
%ADD13C,3.000000*%
G04 APERTURE END LIST*
D10*
%TO.C,J6*%
X150000000Y-130000000D03*
D11*
X152540000Y-130000000D03*
X150000000Y-132540000D03*
X152540000Y-132540000D03*
X150000000Y-135080000D03*
X152540000Y-135080000D03*
X150000000Y-137620000D03*
X152540000Y-137620000D03*
%TD*%
D12*
%TO.C,J1*%
X144920000Y-107250000D03*
D13*
X150000000Y-107250000D03*
%TD*%
D10*
%TO.C,J7*%
X150000000Y-160000000D03*
D11*
X152540000Y-160000000D03*
X150000000Y-162540000D03*
X152540000Y-162540000D03*
X150000000Y-165080000D03*
X152540000Y-165080000D03*
X150000000Y-167620000D03*
X152540000Y-167620000D03*
%TD*%
D10*
%TO.C,J2*%
X100000000Y-100000000D03*
D11*
X100000000Y-102540000D03*
X100000000Y-105080000D03*
X100000000Y-107620000D03*
X100000000Y-110160000D03*
X100000000Y-112700000D03*
X100000000Y-115240000D03*
X100000000Y-117780000D03*
X100000000Y-120320000D03*
X100000000Y-122860000D03*
X100000000Y-125400000D03*
X100000000Y-127940000D03*
X100000000Y-130480000D03*
X100000000Y-133020000D03*
X100000000Y-135560000D03*
%TD*%
D10*
%TO.C,J4*%
X100000000Y-160000000D03*
D11*
X102540000Y-160000000D03*
X100000000Y-162540000D03*
X102540000Y-162540000D03*
X100000000Y-165080000D03*
X102540000Y-165080000D03*
X100000000Y-167620000D03*
X102540000Y-167620000D03*
%TD*%
D10*
%TO.C,J3*%
X125400000Y-100000000D03*
D11*
X125400000Y-102540000D03*
X125400000Y-105080000D03*
X125400000Y-107620000D03*
X125400000Y-110160000D03*
X125400000Y-112700000D03*
X125400000Y-115240000D03*
X125400000Y-117780000D03*
X125400000Y-120320000D03*
X125400000Y-122860000D03*
X125400000Y-125400000D03*
X125400000Y-127940000D03*
X125400000Y-130480000D03*
X125400000Y-133020000D03*
X125400000Y-135560000D03*
%TD*%
D10*
%TO.C,J5*%
X125000000Y-160000000D03*
D11*
X127540000Y-160000000D03*
X125000000Y-162540000D03*
X127540000Y-162540000D03*
X125000000Y-165080000D03*
X127540000Y-165080000D03*
X125000000Y-167620000D03*
X127540000Y-167620000D03*
%TD*%
M02*
