M48
; DRILL file {KiCad 8.0.8+dfsg-1} date 2026-08-03T12:04:19-0700
; FORMAT={-:-/ absolute / inch / decimal}
; #@! TF.CreationDate,2026-08-03T12:04:19-07:00
; #@! TF.GenerationSoftware,Kicad,Pcbnew,8.0.8+dfsg-1
; #@! TF.FileFunction,Plated,1,2,PTH
FMAT,2
INCH
; #@! TA.AperFunction,Plated,PTH,ViaDrill
T1C0.0118
; #@! TA.AperFunction,Plated,PTH,ComponentDrill
T2C0.0394
; #@! TA.AperFunction,Plated,PTH,ComponentDrill
T3C0.0598
%
G90
G05
T1
X5.689Y-6.1614
X5.689Y-6.3484
X5.7677Y-6.1614
X5.7677Y-6.4961
T2
X3.937Y-3.937
X3.937Y-4.037
X3.937Y-4.137
X3.937Y-4.237
X3.937Y-4.337
X3.937Y-4.437
X3.937Y-4.537
X3.937Y-4.637
X3.937Y-4.737
X3.937Y-4.837
X3.937Y-4.937
X3.937Y-5.037
X3.937Y-5.137
X3.937Y-5.237
X3.937Y-5.337
X3.937Y-6.2992
X3.937Y-6.3992
X3.937Y-6.4992
X3.937Y-6.5992
X4.037Y-6.2992
X4.037Y-6.3992
X4.037Y-6.4992
X4.037Y-6.5992
X4.9213Y-6.2992
X4.9213Y-6.3992
X4.9213Y-6.4992
X4.9213Y-6.5992
X4.937Y-3.937
X4.937Y-4.037
X4.937Y-4.137
X4.937Y-4.237
X4.937Y-4.337
X4.937Y-4.437
X4.937Y-4.537
X4.937Y-4.637
X4.937Y-4.737
X4.937Y-4.837
X4.937Y-4.937
X4.937Y-5.037
X4.937Y-5.137
X4.937Y-5.237
X4.937Y-5.337
X5.0213Y-6.2992
X5.0213Y-6.3992
X5.0213Y-6.4992
X5.0213Y-6.5992
X5.9055Y-5.1181
X5.9055Y-5.2181
X5.9055Y-5.3181
X5.9055Y-5.4181
X5.9055Y-6.2992
X5.9055Y-6.3992
X5.9055Y-6.4992
X5.9055Y-6.5992
X6.0055Y-5.1181
X6.0055Y-5.2181
X6.0055Y-5.3181
X6.0055Y-5.4181
X6.0055Y-6.2992
X6.0055Y-6.3992
X6.0055Y-6.4992
X6.0055Y-6.5992
T3
X5.7055Y-4.2224
X5.9055Y-4.2224
M30
